name Walk2.mot
datacolumns 19
datarows 17
range 2.52100000 2.53700000
endheader

                time	   L_ground_force_vx	   L_ground_force_vy	   L_ground_force_vz	   L_ground_force_px	   L_ground_force_py	   L_ground_force_pz	   R_ground_force_vx	   R_ground_force_vy	   R_ground_force_vz	   R_ground_force_px	   R_ground_force_py	   R_ground_force_pz	   L_ground_torque_x	   L_ground_torque_y	   L_ground_torque_z	   R_ground_torque_x	   R_ground_torque_y	   R_ground_torque_z	
          2.52100000	         -0.00000000	         -0.00000000	         -0.00000000	         -0.00000000	          0.00000000	         -0.00000000	         17.13847693	         72.01256473	         16.23665940	          0.42471021	          0.00000000	          0.09631758	          0.00000000	         -0.00000000	          0.00000000	          0.00000000	         -4.40293501	          0.00000000	
          2.52200000	         -0.00000000	         -0.00000000	         -0.00000000	         -0.00000000	          0.00000000	         -0.00000000	         16.04010811	         67.45633197	         15.67889094	          0.41687267	          0.00000000	          0.09454614	          0.00000000	         -0.00000000	          0.00000000	          0.00000000	         -4.14825358	          0.00000000	
          2.52300000	         -0.00000000	         -0.00000000	         -0.00000000	         -0.00000000	          0.00000000	         -0.00000000	         14.97605649	         63.06494144	         15.11724048	          0.40868211	          0.00000000	          0.09269685	          0.00000000	         -0.00000000	          0.00000000	          0.00000000	         -3.90046345	          0.00000000	
          2.52400000	         -0.00000000	         -0.00000000	          0.00000000	         -0.00000000	          0.00000000	         -0.00000000	         13.94690989	         58.83644237	         14.55306717	          0.40014238	          0.00000000	          0.09077035	          0.00000000	         -0.00000000	          0.00000000	          0.00000000	         -3.65973415	          0.00000000	
          2.52500000	         -0.00000000	         -0.00000000	          0.00000000	         -0.00000000	          0.00000000	         -0.00000000	         12.95317677	         54.76878991	         13.98770345	          0.39125922	          0.00000000	          0.08876769	          0.00000000	         -0.00000000	          0.00000000	          0.00000000	         -3.42621905	          0.00000000	
          2.52600000	         -0.00000000	         -0.00000000	          0.00000000	         -0.00000000	          0.00000000	         -0.00000000	         11.99528252	         50.85985697	         13.42245340	          0.38204052	          0.00000000	          0.08669035	          0.00000000	         -0.00000000	          0.00000000	          0.00000000	         -3.20005480	          0.00000000	
          2.52700000	         -0.00000000	         -0.00000000	          0.00000000	         -0.00000000	          0.00000000	         -0.00000000	         11.07356572	         47.10744575	         12.85859138	          0.37249642	          0.00000000	          0.08454030	          0.00000000	         -0.00000000	          0.00000000	          0.00000000	         -2.98136080	          0.00000000	
          2.52800000	         -0.00000000	         -0.00000000	          0.00000000	         -0.00000000	          0.00000000	         -0.00000000	         10.18827432	         43.50929883	         12.29736057	          0.36263952	          0.00000000	          0.08232008	          0.00000000	         -0.00000000	          0.00000000	          0.00000000	         -2.77023835	          0.00000000	
          2.52900000	         -0.00000000	         -0.00000000	          0.00000000	         -0.00000000	          0.00000000	         -0.00000000	          9.33956184	         40.06310983	         11.73997124	          0.35248513	          0.00000000	          0.08003281	          0.00000000	          0.00000000	          0.00000000	          0.00000000	         -2.56676978	          0.00000000	
          2.53000000	         -0.00000000	         -0.00000000	          0.00000000	         -0.00000000	          0.00000000	         -0.00000000	          8.52748361	         36.76653423	         11.18759906	          0.34205141	          0.00000000	          0.07768229	          0.00000000	          0.00000000	          0.00000000	          0.00000000	         -2.37101763	          0.00000000	
          2.53100000	         -0.00000000	         -0.00000000	          0.00000000	         -0.00000000	          0.00000000	         -0.00000000	          7.75199314	         33.61720062	         10.64138358	          0.33135961	          0.00000000	          0.07527299	          0.00000000	          0.00000000	          0.00000000	          0.00000000	         -2.18302384	          0.00000000	
          2.53200000	         -0.00000000	         -0.00000000	          0.00000000	         -0.00000000	          0.00000000	         -0.00000000	          7.01293895	         30.61272188	         10.10242714	          0.32043429	          0.00000000	          0.07281016	          0.00000000	          0.00000000	          0.00000000	          0.00000000	         -2.00280930	          0.00000000	
          2.53300000	         -0.00000000	         -0.00000000	          0.00000000	          0.00000000	          0.00000000	         -0.00000000	          6.31006177	         27.75070476	          9.57179371	          0.30930349	          0.00000000	          0.07029983	          0.00000000	          0.00000000	          0.00000000	          0.00000000	         -1.83037343	          0.00000000	
          2.53400000	         -0.00000000	         -0.00000000	          0.00000000	          0.00000000	          0.00000000	          0.00000000	          5.64299319	         25.02875458	          9.05050725	          0.29799897	          0.00000000	          0.06774895	          0.00000000	          0.00000000	          0.00000000	          0.00000000	         -1.66569394	          0.00000000	
          2.53500000	         -0.00000000	         -0.00000000	          0.00000000	          0.00000000	          0.00000000	          0.00000000	          5.01125613	         22.44447117	          8.53954827	          0.28655646	          0.00000000	          0.06516540	          0.00000000	          0.00000000	          0.00000000	          0.00000000	         -1.50872669	          0.00000000	
          2.53600000	         -0.00000000	         -0.00000000	          0.00000000	          0.00000000	          0.00000000	          0.00000000	          4.41426834	         19.99543223	          8.03984791	          0.27501579	          0.00000000	          0.06255811	          0.00000000	          0.00000000	          0.00000000	          0.00000000	         -1.35940586	          0.00000000	
          2.53700000	         -0.00000000	         -0.00000000	          0.00000000	          0.00000000	          0.00000000	          0.00000000	          3.85135041	         17.67915445	          7.55227678	          0.26342064	          0.00000000	          0.05993695	          0.00000000	          0.00000000	          0.00000000	          0.00000000	         -1.21764436	          0.00000000	
